<svg id="svgimgDBArtifact" xmlns="http://www.w3.org/2000/svg" width="23" height="25" viewBox="0 0 23 25"  fill="#5392F6">
                            <path d="M22.3668 4.24787C22.3668 4.11832 22.3154 3.9941 22.2237 3.90249L18.4623 0.142931C18.3707 0.0514198 18.2466 0 18.1171 0H4.10187C3.29409 0 2.63691 0.657178 2.63691 1.46495V6.62964H1.46495C0.657178 6.62964 0 7.28682 0 8.09459V13.9544C0 14.7622 0.657178 15.4194 1.46495 15.4194H2.63691V23.535C2.63691 24.3428 3.29409 25 4.10187 25H20.9019C21.7097 25 22.3668 24.3428 22.3668 23.535V13.1922C22.3668 12.9225 22.1482 12.7039 21.8785 12.7039C21.6088 12.7039 21.3902 12.9225 21.3902 13.1922V23.535C21.3902 23.8043 21.1712 24.0234 20.9019 24.0234H4.10187C3.83261 24.0234 3.61355 23.8043 3.61355 23.535V15.4194H16.3098C17.1176 15.4194 17.7748 14.7622 17.7748 13.9544V8.09459C17.7748 7.28682 17.1176 6.62964 16.3098 6.62964H3.61355V1.46495C3.61355 1.19569 3.83261 0.976635 4.10187 0.976635H17.58V3.32007C17.58 4.12785 18.2371 4.78502 19.0449 4.78502H21.3902V8.79733C21.3902 9.06703 21.6088 9.28565 21.8785 9.28565C22.1482 9.28565 22.3668 9.06703 22.3668 8.79733V4.24787ZM16.7981 8.09459V13.9544C16.7981 14.2237 16.5791 14.4427 16.3098 14.4427H1.46495C1.19569 14.4427 0.976635 14.2237 0.976635 13.9544V8.09459C0.976635 7.82534 1.19569 7.60628 1.46495 7.60628H16.3098C16.5791 7.60628 16.7981 7.82534 16.7981 8.09459ZM18.5566 3.32007V1.61799L20.7481 3.80839H19.0449C18.7757 3.80839 18.5566 3.58933 18.5566 3.32007Z" />
                            <path d="M10.1165 13.4661H10.1187C10.1188 13.4661 11.1619 13.4614 11.4494 13.4614C12.2985 13.4614 12.9893 12.7707 12.9893 11.9216C12.9893 11.438 12.765 11.006 12.4151 10.7235C12.5562 10.5064 12.6385 10.2478 12.6385 9.97016C12.6385 9.20521 12.0161 8.58295 11.2512 8.58295H10.1165C9.84679 8.58295 9.62817 8.80157 9.62817 9.07126V12.9778C9.62817 13.1077 9.67994 13.2322 9.77198 13.3239C9.86354 13.4149 9.98743 13.4661 10.1165 13.4661ZM11.4495 12.4848C11.294 12.4848 10.9183 12.4862 10.6049 12.4874V11.3593C10.6815 11.359 11.4495 11.3584 11.4495 11.3584C11.76 11.3584 12.0127 11.6111 12.0127 11.9216C12.0126 12.2321 11.76 12.4848 11.4495 12.4848ZM11.2513 9.55953C11.4777 9.55953 11.6619 9.74373 11.6619 9.97011C11.6619 10.1965 11.4777 10.3807 11.2513 10.3807C11.1671 10.3807 10.6049 10.3818 10.6049 10.3818V9.55953H11.2513Z" />
                            <path d="M4.87913 13.3243C4.97064 13.4152 5.09428 13.4661 5.22315 13.4661H5.225C5.25845 13.466 6.04733 13.4629 6.36254 13.4574C7.53587 13.4369 8.38754 12.4137 8.38754 11.0245C8.38754 9.56409 7.5573 8.58292 6.32162 8.58292H5.21519C5.08554 8.58292 4.96116 8.63448 4.86955 8.72629C4.77795 8.81809 4.72662 8.94251 4.72687 9.07216V9.07519V9.07529C4.72687 9.07529 4.73024 12.9794 4.73644 13.0105C4.74445 13.1287 4.7946 13.2404 4.87913 13.3243ZM6.32162 9.55955C6.84822 9.55955 7.41091 9.94439 7.41091 11.0245C7.41091 11.7402 7.08144 12.4681 6.34549 12.4809C6.19949 12.4834 5.94171 12.4855 5.7098 12.487C5.70829 12.0246 5.70521 10.0397 5.70438 9.55955H6.32162Z" />
                            <path d="M19.2207 17.7729H5.7811C5.51141 17.7729 5.29279 17.9915 5.29279 18.2612C5.29279 18.5309 5.51141 18.7495 5.7811 18.7495H19.2207C19.4904 18.7495 19.709 18.5309 19.709 18.2612C19.709 17.9915 19.4904 17.7729 19.2207 17.7729Z" />
                            <path d="M19.2207 20.1168H5.7811C5.51141 20.1168 5.29279 20.3354 5.29279 20.6051C5.29279 20.8748 5.51141 21.0935 5.7811 21.0935H19.2207C19.4904 21.0935 19.709 20.8748 19.709 20.6051C19.709 20.3354 19.4904 20.1168 19.2207 20.1168Z" />
                            <path d="M5.7811 3.80838C5.51141 3.80838 5.29279 4.027 5.29279 4.2967C5.29279 4.5664 5.51141 4.78502 5.7811 4.78502H14.2212C14.4909 4.78502 14.7095 4.5664 14.7095 4.2967C14.7095 4.027 14.4909 3.80838 14.2212 3.80838H5.7811Z" />
                            <path d="M21.8766 11.4829C22.1463 11.4829 22.3649 11.2643 22.3649 10.9946C22.3649 10.7249 22.1463 10.5063 21.8766 10.5063C21.6069 10.5063 21.3883 10.7249 21.3883 10.9946C21.3883 11.2643 21.6069 11.4829 21.8766 11.4829Z" />
                          </svg>