<svg width="18" height="17" viewBox="0 0 18 17" fill="none" xmlns="http://www.w3.org/2000/svg">
<path d="M10.9313 2.6502L12.8625 4.45992C12.9813 4.5787 12.9813 4.77248 12.8625 4.89126L6.6469 11.2617L4.1719 12.2571C3.7844 12.3008 3.45627 11.9726 3.50002 11.5851L4.2844 9.02068L10.5 2.6502C10.6188 2.53142 10.8125 2.53142 10.9313 2.6502ZM14.5 1.5156L13.8625 0.999874C13.3875 0.524781 12.6156 0.524781 12.1375 0.999874L11.6375 1.5156C11.5188 1.63437 11.5188 1.82816 11.6375 1.94693L13.5688 3.75666C13.6875 3.87543 13.8813 3.87543 14 3.75666L14.5 3.24094C14.975 2.76272 14.975 1.99069 14.5 1.5156Z" fill="white"/>
<rect y="14.5" width="18" height="2" rx="1" fill="white"/>
</svg>
