<svg width="18" height="16" viewBox="0 0 18 16" fill="none" xmlns="http://www.w3.org/2000/svg">
<g id="Group 1398">
<path id="Edit" d="M10.9313 2.15032L12.8625 3.96005C12.9813 4.07882 12.9813 4.27261 12.8625 4.39138L6.6469 10.7619L4.1719 11.7572C3.7844 11.8009 3.45627 11.4728 3.50002 11.0852L4.2844 8.5208L10.5 2.15032C10.6188 2.03155 10.8125 2.03155 10.9313 2.15032ZM14.5 1.01572L13.8625 0.499996C13.3875 0.0249036 12.6156 0.0249036 12.1375 0.499996L11.6375 1.01572C11.5188 1.1345 11.5188 1.32828 11.6375 1.44706L13.5688 3.25678C13.6875 3.37556 13.8813 3.37556 14 3.25678L14.5 2.74106C14.975 2.26284 14.975 1.49081 14.5 1.01572Z" fill="white"/>
<rect id="Rectangle 37951" y="14.0001" width="18" height="2" rx="1" fill="white"/>
</g>
</svg>
