<svg xmlns="http://www.w3.org/2000/svg" width="25" height="25" viewBox="0 0 25 25"  id="svgimgFileLocation"  fill="white"> 
                           
                        <path d="M3.33331 10.8333H8.33331V12.5H3.33331V10.8333Z" />
                        <path d="M3.33331 14.5833H10.8333V16.25H3.33331V14.5833Z" />
                        <path d="M3.33331 18.3333H10.8333V20H3.33331V18.3333Z"/>
                        <path d="M18.3333 8.33334C18.0546 8.3359 17.7763 8.35538 17.5 8.39168V5.83334C17.5006 5.72367 17.4796 5.61495 17.4381 5.51342C17.3967 5.41189 17.3356 5.31954 17.2583 5.24168L12.2583 0.24168C12.1805 0.164446 12.0881 0.103342 11.9866 0.0618712C11.8851 0.0204007 11.7763 -0.000620149 11.6667 1.39286e-05H0.833333C0.612319 1.39286e-05 0.400358 0.0878112 0.244078 0.244091C0.0877973 0.400372 0 0.612333 0 0.833347V22.5C0 22.721 0.0877973 22.933 0.244078 23.0893C0.400358 23.2455 0.612319 23.3333 0.833333 23.3333H16.1167C16.6628 23.8624 17.2358 24.3631 17.8333 24.8333C17.9776 24.9415 18.153 25 18.3333 25C18.5136 25 18.6891 24.9415 18.8333 24.8333C19.0833 24.6417 25 20.1417 25 15C25 13.2319 24.2976 11.5362 23.0474 10.286C21.7971 9.03572 20.1014 8.33334 18.3333 8.33334ZM12.5 2.84168L14.6583 5.00001H12.5V2.84168ZM1.66667 1.66668H10.8333V5.83334C10.8333 6.05436 10.9211 6.26632 11.0774 6.4226C11.2337 6.57888 11.4456 6.66668 11.6667 6.66668H15.8333V8.82501C14.6031 9.32267 13.5494 10.1762 12.8071 11.2763C12.0648 12.3763 11.6677 13.6729 11.6667 15C11.6667 17.5 13.0917 19.8833 14.5667 21.6667H1.66667V1.66668ZM18.3333 23.0917C16.975 21.9417 13.3333 18.5333 13.3333 15C13.3333 13.6739 13.8601 12.4022 14.7978 11.4645C15.7355 10.5268 17.0072 10 18.3333 10C19.6594 10 20.9312 10.5268 21.8689 11.4645C22.8065 12.4022 23.3333 13.6739 23.3333 15C23.3333 18.525 19.6917 21.9417 18.3333 23.0917Z" />
                        <path d="M18.3333 11.6667C17.6741 11.6667 17.0296 11.8622 16.4814 12.2285C15.9333 12.5947 15.506 13.1153 15.2537 13.7244C15.0014 14.3335 14.9354 15.0037 15.0641 15.6503C15.1927 16.2969 15.5101 16.8909 15.9763 17.357C16.4425 17.8232 17.0364 18.1407 17.683 18.2693C18.3296 18.3979 18.9999 18.3319 19.6089 18.0796C20.218 17.8273 20.7386 17.4001 21.1049 16.8519C21.4712 16.3038 21.6667 15.6593 21.6667 15C21.6667 14.116 21.3155 13.2681 20.6904 12.643C20.0652 12.0179 19.2174 11.6667 18.3333 11.6667ZM18.3333 16.6667C18.0037 16.6667 17.6815 16.5689 17.4074 16.3858C17.1333 16.2027 16.9197 15.9424 16.7935 15.6378C16.6674 15.3333 16.6344 14.9982 16.6987 14.6749C16.763 14.3516 16.9217 14.0546 17.1548 13.8215C17.3879 13.5884 17.6849 13.4297 18.0082 13.3654C18.3315 13.3011 18.6666 13.3341 18.9711 13.4602C19.2757 13.5864 19.536 13.8 19.7191 14.0741C19.9023 14.3481 20 14.6704 20 15C20 15.442 19.8244 15.866 19.5118 16.1785C19.1993 16.4911 18.7754 16.6667 18.3333 16.6667Z" />
                      </svg>