<svg width="18" height="16" viewBox="0 0 18 16" fill="none" xmlns="http://www.w3.org/2000/svg">
<g id="Reset">
<path id="Vector" d="M9.08153 1.88611C8.90941 1.88611 8.72499 1.91069 8.55287 1.92298L8.89711 1.52956C9.22906 1.14844 9.19218 0.558306 8.81105 0.226358C8.42992 -0.105591 7.83979 -0.0687073 7.50785 0.312419L5.45472 2.66065C5.44243 2.67294 5.44243 2.68525 5.43013 2.69754C5.41784 2.70982 5.40553 2.70982 5.40553 2.72212C5.38094 2.759 5.36867 2.80819 5.34408 2.85737C5.3195 2.91884 5.28259 2.96802 5.27029 3.02948C5.258 3.09095 5.25801 3.14013 5.24572 3.2016C5.24572 3.26307 5.23341 3.31225 5.23341 3.37372C5.23341 3.43519 5.25801 3.48438 5.2826 3.54585C5.29489 3.60733 5.3195 3.65649 5.34408 3.70567C5.36867 3.75485 5.41784 3.80402 5.45472 3.8532C5.4916 3.89008 5.50389 3.93926 5.54077 3.96385C5.55306 3.97614 5.56536 3.97616 5.57765 3.98845C5.58995 4.00074 5.58996 4.01303 5.60225 4.01303L7.98733 5.75884C8.14715 5.88177 8.34386 5.93096 8.52828 5.93096C8.81105 5.93096 9.09382 5.79571 9.27824 5.54982C9.5733 5.14412 9.48724 4.56628 9.08153 4.25892L8.39304 3.75484C8.61434 3.73026 8.84793 3.70567 9.08153 3.70567C11.9584 3.70567 14.3066 6.05391 14.3066 8.93073C14.3066 11.8076 11.9584 14.1558 9.08153 14.1558C6.20468 14.1558 3.85645 11.8076 3.85645 8.93073C3.85645 7.88571 4.16382 6.88986 4.72937 6.02932C5.01214 5.61131 4.90147 5.03346 4.47117 4.7507C4.05316 4.46793 3.47534 4.57858 3.19257 5.00888C2.41802 6.17685 2 7.52917 2 8.93073C2 12.828 5.17195 16 9.06923 16C12.9666 16 16.1385 12.828 16.1385 8.93073C16.1385 5.03346 12.9788 1.88611 9.08153 1.88611Z" fill="white"/>
</g>
</svg>
