<svg width="150" height="46" viewBox="0 0 150 46" fill="none" xmlns="http://www.w3.org/2000/svg">
<g filter="url(#filter0_d_2956_1361)">
<path d="M4 7C4 3.68629 6.68629 1 10 1H140C143.314 1 146 3.68629 146 7V33C146 36.3137 143.314 39 140 39H10C6.68629 39 4 36.3137 4 33V7Z" fill="#0047BA"/>
<path d="M29.4444 12H18.7778C18.3063 12 17.8541 12.1873 17.5207 12.5207C17.1873 12.8541 17 13.3063 17 13.7778V26.2222C17 26.6937 17.1873 27.1459 17.5207 27.4793C17.8541 27.8127 18.3063 28 18.7778 28H31.2222C32.2 28 33 27.2 33 26.2222V15.5556L29.4444 12ZM31.2222 26.2222H18.7778V13.7778H28.7067L31.2222 16.2933V26.2222ZM25 20C23.5244 20 22.3333 21.1911 22.3333 22.6667C22.3333 24.1422 23.5244 25.3333 25 25.3333C26.4756 25.3333 27.6667 24.1422 27.6667 22.6667C27.6667 21.1911 26.4756 20 25 20ZM19.6667 15.5556H27.6667V17.5H19.6667V15.5556Z" fill="white"/>
<path d="M50.3223 22.4365C50.3223 22.2314 50.2904 22.0492 50.2266 21.8896C50.1673 21.7301 50.0602 21.5843 49.9053 21.4521C49.7503 21.32 49.5316 21.1924 49.249 21.0693C48.971 20.9417 48.6156 20.8118 48.1826 20.6797C47.7087 20.5339 47.2712 20.3721 46.8701 20.1943C46.4736 20.012 46.1273 19.8024 45.8311 19.5654C45.5348 19.3239 45.3047 19.0482 45.1406 18.7383C44.9766 18.4238 44.8945 18.0615 44.8945 17.6514C44.8945 17.2458 44.9788 16.8766 45.1475 16.5439C45.3206 16.2113 45.5645 15.9242 45.8789 15.6826C46.1979 15.4365 46.5739 15.2474 47.0068 15.1152C47.4398 14.9785 47.9183 14.9102 48.4424 14.9102C49.1807 14.9102 49.8164 15.0469 50.3496 15.3203C50.8874 15.5938 51.2998 15.9606 51.5869 16.4209C51.8786 16.8812 52.0244 17.3893 52.0244 17.9453H50.3223C50.3223 17.6172 50.2516 17.3278 50.1104 17.0771C49.9736 16.8219 49.764 16.6214 49.4814 16.4756C49.2035 16.3298 48.8503 16.2568 48.4219 16.2568C48.0163 16.2568 47.679 16.3184 47.4102 16.4414C47.1413 16.5645 46.9408 16.7308 46.8086 16.9404C46.6764 17.1501 46.6104 17.387 46.6104 17.6514C46.6104 17.8382 46.6536 18.0091 46.7402 18.1641C46.8268 18.3145 46.959 18.4557 47.1367 18.5879C47.3145 18.7155 47.5378 18.8363 47.8066 18.9502C48.0755 19.0641 48.3923 19.1735 48.7568 19.2783C49.3083 19.4424 49.7891 19.6247 50.1992 19.8252C50.6094 20.0212 50.9512 20.2445 51.2246 20.4951C51.498 20.7458 51.7031 21.0306 51.8398 21.3496C51.9766 21.6641 52.0449 22.0218 52.0449 22.4229C52.0449 22.8421 51.9606 23.2204 51.792 23.5576C51.6234 23.8903 51.3818 24.1751 51.0674 24.4121C50.7575 24.6445 50.3838 24.8245 49.9463 24.9521C49.5133 25.0752 49.0303 25.1367 48.4971 25.1367C48.0186 25.1367 47.5469 25.0729 47.082 24.9453C46.6217 24.8177 46.2025 24.624 45.8242 24.3643C45.446 24.0999 45.1452 23.7718 44.9219 23.3799C44.6986 22.9834 44.5869 22.5208 44.5869 21.9922H46.3027C46.3027 22.3158 46.3574 22.5915 46.4668 22.8193C46.5807 23.0472 46.738 23.234 46.9385 23.3799C47.139 23.5212 47.3714 23.626 47.6357 23.6943C47.9046 23.7627 48.1917 23.7969 48.4971 23.7969C48.8981 23.7969 49.2331 23.7399 49.502 23.626C49.7754 23.512 49.9805 23.3525 50.1172 23.1475C50.2539 22.9424 50.3223 22.7054 50.3223 22.4365ZM56.6592 25.1367C56.1123 25.1367 55.6178 25.0479 55.1758 24.8701C54.7383 24.6878 54.3646 24.4349 54.0547 24.1113C53.7493 23.7878 53.5146 23.4072 53.3506 22.9697C53.1865 22.5322 53.1045 22.0605 53.1045 21.5547V21.2812C53.1045 20.7025 53.1888 20.1784 53.3574 19.709C53.526 19.2396 53.7607 18.8385 54.0615 18.5059C54.3623 18.1686 54.7178 17.9111 55.1279 17.7334C55.5381 17.5557 55.9824 17.4668 56.4609 17.4668C56.9896 17.4668 57.4521 17.5557 57.8486 17.7334C58.2451 17.9111 58.5732 18.1618 58.833 18.4854C59.0973 18.8044 59.2933 19.1849 59.4209 19.627C59.5531 20.069 59.6191 20.5566 59.6191 21.0898V21.7939H53.9043V20.6113H57.9922V20.4814C57.9831 20.1852 57.9238 19.9072 57.8145 19.6475C57.7096 19.3877 57.5479 19.1781 57.3291 19.0186C57.1104 18.859 56.8187 18.7793 56.4541 18.7793C56.1807 18.7793 55.9368 18.8385 55.7227 18.957C55.513 19.071 55.3376 19.2373 55.1963 19.4561C55.055 19.6748 54.9456 19.9391 54.8682 20.249C54.7952 20.5544 54.7588 20.8984 54.7588 21.2812V21.5547C54.7588 21.8783 54.8021 22.179 54.8887 22.457C54.9798 22.7305 55.112 22.9697 55.2852 23.1748C55.4583 23.3799 55.668 23.5417 55.9141 23.6602C56.1602 23.7741 56.4404 23.8311 56.7549 23.8311C57.1514 23.8311 57.5046 23.7513 57.8145 23.5918C58.1243 23.4323 58.3932 23.2067 58.6211 22.915L59.4893 23.7559C59.3298 23.9883 59.1224 24.2116 58.8672 24.4258C58.612 24.6354 58.2998 24.8063 57.9307 24.9385C57.5661 25.0706 57.1423 25.1367 56.6592 25.1367ZM64.2949 17.6035V18.8066H60.125V17.6035H64.2949ZM61.3281 15.792H62.9756V22.9561C62.9756 23.1839 63.0075 23.3594 63.0713 23.4824C63.1396 23.6009 63.2331 23.6807 63.3516 23.7217C63.4701 23.7627 63.609 23.7832 63.7686 23.7832C63.8825 23.7832 63.9919 23.7764 64.0967 23.7627C64.2015 23.749 64.2858 23.7354 64.3496 23.7217L64.3564 24.9795C64.2197 25.0205 64.0602 25.057 63.8779 25.0889C63.7002 25.1208 63.4951 25.1367 63.2627 25.1367C62.8844 25.1367 62.5495 25.0706 62.2578 24.9385C61.9661 24.8018 61.7383 24.5807 61.5742 24.2754C61.4102 23.9701 61.3281 23.5645 61.3281 23.0586V15.792ZM74.4531 22.4365C74.4531 22.2314 74.4212 22.0492 74.3574 21.8896C74.2982 21.7301 74.1911 21.5843 74.0361 21.4521C73.8812 21.32 73.6624 21.1924 73.3799 21.0693C73.1019 20.9417 72.7464 20.8118 72.3135 20.6797C71.8395 20.5339 71.402 20.3721 71.001 20.1943C70.6045 20.012 70.2581 19.8024 69.9619 19.5654C69.6657 19.3239 69.4355 19.0482 69.2715 18.7383C69.1074 18.4238 69.0254 18.0615 69.0254 17.6514C69.0254 17.2458 69.1097 16.8766 69.2783 16.5439C69.4515 16.2113 69.6953 15.9242 70.0098 15.6826C70.3288 15.4365 70.7048 15.2474 71.1377 15.1152C71.5706 14.9785 72.0492 14.9102 72.5732 14.9102C73.3115 14.9102 73.9473 15.0469 74.4805 15.3203C75.0182 15.5938 75.4307 15.9606 75.7178 16.4209C76.0094 16.8812 76.1553 17.3893 76.1553 17.9453H74.4531C74.4531 17.6172 74.3825 17.3278 74.2412 17.0771C74.1045 16.8219 73.8949 16.6214 73.6123 16.4756C73.3343 16.3298 72.9811 16.2568 72.5527 16.2568C72.1471 16.2568 71.8099 16.3184 71.541 16.4414C71.2721 16.5645 71.0716 16.7308 70.9395 16.9404C70.8073 17.1501 70.7412 17.387 70.7412 17.6514C70.7412 17.8382 70.7845 18.0091 70.8711 18.1641C70.9577 18.3145 71.0898 18.4557 71.2676 18.5879C71.4453 18.7155 71.6686 18.8363 71.9375 18.9502C72.2064 19.0641 72.5231 19.1735 72.8877 19.2783C73.4391 19.4424 73.9199 19.6247 74.3301 19.8252C74.7402 20.0212 75.082 20.2445 75.3555 20.4951C75.6289 20.7458 75.834 21.0306 75.9707 21.3496C76.1074 21.6641 76.1758 22.0218 76.1758 22.4229C76.1758 22.8421 76.0915 23.2204 75.9229 23.5576C75.7542 23.8903 75.5127 24.1751 75.1982 24.4121C74.8883 24.6445 74.5146 24.8245 74.0771 24.9521C73.6442 25.0752 73.1611 25.1367 72.6279 25.1367C72.1494 25.1367 71.6777 25.0729 71.2129 24.9453C70.7526 24.8177 70.3333 24.624 69.9551 24.3643C69.5768 24.0999 69.276 23.7718 69.0527 23.3799C68.8294 22.9834 68.7178 22.5208 68.7178 21.9922H70.4336C70.4336 22.3158 70.4883 22.5915 70.5977 22.8193C70.7116 23.0472 70.8688 23.234 71.0693 23.3799C71.2699 23.5212 71.5023 23.626 71.7666 23.6943C72.0355 23.7627 72.3226 23.7969 72.6279 23.7969C73.029 23.7969 73.3639 23.7399 73.6328 23.626C73.9062 23.512 74.1113 23.3525 74.248 23.1475C74.3848 22.9424 74.4531 22.7054 74.4531 22.4365ZM80.5508 23.8242C80.8197 23.8242 81.0612 23.7718 81.2754 23.667C81.4941 23.5576 81.6696 23.4072 81.8018 23.2158C81.9385 23.0244 82.0137 22.8034 82.0273 22.5527H83.5791C83.57 23.0312 83.4287 23.4665 83.1553 23.8584C82.8818 24.2503 82.5195 24.5625 82.0684 24.7949C81.6172 25.0228 81.1182 25.1367 80.5713 25.1367C80.0062 25.1367 79.514 25.041 79.0947 24.8496C78.6755 24.6536 78.3268 24.3848 78.0488 24.043C77.7708 23.7012 77.5612 23.307 77.4199 22.8604C77.2832 22.4137 77.2148 21.9352 77.2148 21.4248V21.1855C77.2148 20.6751 77.2832 20.1966 77.4199 19.75C77.5612 19.2988 77.7708 18.9023 78.0488 18.5605C78.3268 18.2188 78.6755 17.9521 79.0947 17.7607C79.514 17.5648 80.0039 17.4668 80.5645 17.4668C81.1569 17.4668 81.6764 17.5853 82.123 17.8223C82.5697 18.0547 82.9206 18.3805 83.1758 18.7998C83.4355 19.2145 83.57 19.6976 83.5791 20.249H82.0273C82.0137 19.9756 81.9453 19.7295 81.8223 19.5107C81.7038 19.2874 81.5352 19.1097 81.3164 18.9775C81.1022 18.8454 80.8447 18.7793 80.5439 18.7793C80.2113 18.7793 79.9355 18.8477 79.7168 18.9844C79.498 19.1165 79.3271 19.2988 79.2041 19.5312C79.0811 19.7591 78.9922 20.0166 78.9375 20.3037C78.8874 20.5863 78.8623 20.8802 78.8623 21.1855V21.4248C78.8623 21.7301 78.8874 22.0264 78.9375 22.3135C78.9876 22.6006 79.0742 22.8581 79.1973 23.0859C79.3249 23.3092 79.498 23.4893 79.7168 23.626C79.9355 23.7581 80.2135 23.8242 80.5508 23.8242ZM86.4707 14.5V25H84.8301V14.5H86.4707ZM86.1836 21.0283L85.6504 21.0215C85.6549 20.5111 85.7256 20.0394 85.8623 19.6064C86.0036 19.1735 86.1995 18.7975 86.4502 18.4785C86.7054 18.1549 87.0107 17.9066 87.3662 17.7334C87.7217 17.5557 88.1159 17.4668 88.5488 17.4668C88.9134 17.4668 89.2415 17.5169 89.5332 17.6172C89.8294 17.7174 90.0846 17.8792 90.2988 18.1025C90.513 18.3213 90.6748 18.6084 90.7842 18.9639C90.8981 19.3148 90.9551 19.7432 90.9551 20.249V25H89.3008V20.2354C89.3008 19.8799 89.2484 19.5973 89.1436 19.3877C89.0433 19.1781 88.8952 19.0277 88.6992 18.9365C88.5033 18.8408 88.264 18.793 87.9814 18.793C87.6852 18.793 87.4232 18.8522 87.1953 18.9707C86.972 19.0892 86.7852 19.251 86.6348 19.4561C86.4844 19.6611 86.3704 19.8981 86.293 20.167C86.2201 20.4359 86.1836 20.723 86.1836 21.0283ZM95.8838 25.1367C95.3369 25.1367 94.8424 25.0479 94.4004 24.8701C93.9629 24.6878 93.5892 24.4349 93.2793 24.1113C92.974 23.7878 92.7393 23.4072 92.5752 22.9697C92.4111 22.5322 92.3291 22.0605 92.3291 21.5547V21.2812C92.3291 20.7025 92.4134 20.1784 92.582 19.709C92.7507 19.2396 92.9854 18.8385 93.2861 18.5059C93.5869 18.1686 93.9424 17.9111 94.3525 17.7334C94.7627 17.5557 95.207 17.4668 95.6855 17.4668C96.2142 17.4668 96.6768 17.5557 97.0732 17.7334C97.4697 17.9111 97.7979 18.1618 98.0576 18.4854C98.3219 18.8044 98.5179 19.1849 98.6455 19.627C98.7777 20.069 98.8438 20.5566 98.8438 21.0898V21.7939H93.1289V20.6113H97.2168V20.4814C97.2077 20.1852 97.1484 19.9072 97.0391 19.6475C96.9342 19.3877 96.7725 19.1781 96.5537 19.0186C96.335 18.859 96.0433 18.7793 95.6787 18.7793C95.4053 18.7793 95.1615 18.8385 94.9473 18.957C94.7376 19.071 94.5622 19.2373 94.4209 19.4561C94.2796 19.6748 94.1702 19.9391 94.0928 20.249C94.0199 20.5544 93.9834 20.8984 93.9834 21.2812V21.5547C93.9834 21.8783 94.0267 22.179 94.1133 22.457C94.2044 22.7305 94.3366 22.9697 94.5098 23.1748C94.6829 23.3799 94.8926 23.5417 95.1387 23.6602C95.3848 23.7741 95.665 23.8311 95.9795 23.8311C96.376 23.8311 96.7292 23.7513 97.0391 23.5918C97.349 23.4323 97.6178 23.2067 97.8457 22.915L98.7139 23.7559C98.5544 23.9883 98.347 24.2116 98.0918 24.4258C97.8366 24.6354 97.5244 24.8063 97.1553 24.9385C96.7907 25.0706 96.3669 25.1367 95.8838 25.1367ZM104.641 23.4688V14.5H106.295V25H104.798L104.641 23.4688ZM99.8281 21.3838V21.2402C99.8281 20.6797 99.8942 20.1693 100.026 19.709C100.159 19.2441 100.35 18.8454 100.601 18.5127C100.851 18.1755 101.157 17.918 101.517 17.7402C101.877 17.5579 102.282 17.4668 102.733 17.4668C103.18 17.4668 103.572 17.5534 103.909 17.7266C104.246 17.8997 104.534 18.1481 104.771 18.4717C105.007 18.7907 105.197 19.1735 105.338 19.6201C105.479 20.0622 105.579 20.5544 105.639 21.0967V21.5547C105.579 22.0833 105.479 22.5664 105.338 23.0039C105.197 23.4414 105.007 23.8197 104.771 24.1387C104.534 24.4577 104.244 24.7038 103.902 24.877C103.565 25.0501 103.171 25.1367 102.72 25.1367C102.273 25.1367 101.87 25.0433 101.51 24.8564C101.154 24.6696 100.851 24.4076 100.601 24.0703C100.35 23.7331 100.159 23.3366 100.026 22.8809C99.8942 22.4206 99.8281 21.9215 99.8281 21.3838ZM101.476 21.2402V21.3838C101.476 21.721 101.505 22.0355 101.564 22.3271C101.628 22.6188 101.726 22.8763 101.858 23.0996C101.991 23.3184 102.161 23.4915 102.371 23.6191C102.585 23.7422 102.84 23.8037 103.137 23.8037C103.51 23.8037 103.818 23.7217 104.06 23.5576C104.301 23.3936 104.49 23.1725 104.627 22.8945C104.768 22.612 104.864 22.2975 104.914 21.9512V20.7139C104.887 20.445 104.83 20.1943 104.743 19.9619C104.661 19.7295 104.549 19.5267 104.408 19.3535C104.267 19.1758 104.091 19.0391 103.882 18.9434C103.677 18.8431 103.433 18.793 103.15 18.793C102.85 18.793 102.594 18.8568 102.385 18.9844C102.175 19.112 102.002 19.2874 101.865 19.5107C101.733 19.734 101.635 19.9938 101.571 20.29C101.507 20.5863 101.476 20.903 101.476 21.2402ZM112.468 23.2568V17.6035H114.122V25H112.563L112.468 23.2568ZM112.7 21.7188L113.254 21.7051C113.254 22.2018 113.199 22.6598 113.09 23.0791C112.98 23.4938 112.812 23.8561 112.584 24.166C112.356 24.4714 112.064 24.7106 111.709 24.8838C111.354 25.0524 110.927 25.1367 110.431 25.1367C110.071 25.1367 109.74 25.0843 109.439 24.9795C109.139 24.8747 108.879 24.7129 108.66 24.4941C108.446 24.2754 108.28 23.9906 108.161 23.6396C108.043 23.2887 107.983 22.8695 107.983 22.3818V17.6035H109.631V22.3955C109.631 22.6644 109.663 22.89 109.727 23.0723C109.79 23.25 109.877 23.3936 109.986 23.5029C110.096 23.6123 110.223 23.6898 110.369 23.7354C110.515 23.7809 110.67 23.8037 110.834 23.8037C111.303 23.8037 111.673 23.7126 111.941 23.5303C112.215 23.3434 112.409 23.0928 112.522 22.7783C112.641 22.4639 112.7 22.1107 112.7 21.7188ZM117.574 14.5V25H115.92V14.5H117.574ZM122.64 25.1367C122.093 25.1367 121.598 25.0479 121.156 24.8701C120.719 24.6878 120.345 24.4349 120.035 24.1113C119.73 23.7878 119.495 23.4072 119.331 22.9697C119.167 22.5322 119.085 22.0605 119.085 21.5547V21.2812C119.085 20.7025 119.169 20.1784 119.338 19.709C119.507 19.2396 119.741 18.8385 120.042 18.5059C120.343 18.1686 120.698 17.9111 121.108 17.7334C121.519 17.5557 121.963 17.4668 122.441 17.4668C122.97 17.4668 123.433 17.5557 123.829 17.7334C124.226 17.9111 124.554 18.1618 124.813 18.4854C125.078 18.8044 125.274 19.1849 125.401 19.627C125.534 20.069 125.6 20.5566 125.6 21.0898V21.7939H119.885V20.6113H123.973V20.4814C123.964 20.1852 123.904 19.9072 123.795 19.6475C123.69 19.3877 123.528 19.1781 123.31 19.0186C123.091 18.859 122.799 18.7793 122.435 18.7793C122.161 18.7793 121.917 18.8385 121.703 18.957C121.493 19.071 121.318 19.2373 121.177 19.4561C121.035 19.6748 120.926 19.9391 120.849 20.249C120.776 20.5544 120.739 20.8984 120.739 21.2812V21.5547C120.739 21.8783 120.783 22.179 120.869 22.457C120.96 22.7305 121.092 22.9697 121.266 23.1748C121.439 23.3799 121.648 23.5417 121.895 23.6602C122.141 23.7741 122.421 23.8311 122.735 23.8311C123.132 23.8311 123.485 23.7513 123.795 23.5918C124.105 23.4323 124.374 23.2067 124.602 22.915L125.47 23.7559C125.31 23.9883 125.103 24.2116 124.848 24.4258C124.592 24.6354 124.28 24.8063 123.911 24.9385C123.547 25.0706 123.123 25.1367 122.64 25.1367ZM131.396 23.4688V14.5H133.051V25H131.554L131.396 23.4688ZM126.584 21.3838V21.2402C126.584 20.6797 126.65 20.1693 126.782 19.709C126.914 19.2441 127.106 18.8454 127.356 18.5127C127.607 18.1755 127.912 17.918 128.272 17.7402C128.632 17.5579 129.038 17.4668 129.489 17.4668C129.936 17.4668 130.328 17.5534 130.665 17.7266C131.002 17.8997 131.289 18.1481 131.526 18.4717C131.763 18.7907 131.952 19.1735 132.094 19.6201C132.235 20.0622 132.335 20.5544 132.395 21.0967V21.5547C132.335 22.0833 132.235 22.5664 132.094 23.0039C131.952 23.4414 131.763 23.8197 131.526 24.1387C131.289 24.4577 131 24.7038 130.658 24.877C130.321 25.0501 129.927 25.1367 129.476 25.1367C129.029 25.1367 128.626 25.0433 128.266 24.8564C127.91 24.6696 127.607 24.4076 127.356 24.0703C127.106 23.7331 126.914 23.3366 126.782 22.8809C126.65 22.4206 126.584 21.9215 126.584 21.3838ZM128.231 21.2402V21.3838C128.231 21.721 128.261 22.0355 128.32 22.3271C128.384 22.6188 128.482 22.8763 128.614 23.0996C128.746 23.3184 128.917 23.4915 129.127 23.6191C129.341 23.7422 129.596 23.8037 129.893 23.8037C130.266 23.8037 130.574 23.7217 130.815 23.5576C131.057 23.3936 131.246 23.1725 131.383 22.8945C131.524 22.612 131.62 22.2975 131.67 21.9512V20.7139C131.643 20.445 131.586 20.1943 131.499 19.9619C131.417 19.7295 131.305 19.5267 131.164 19.3535C131.023 19.1758 130.847 19.0391 130.638 18.9434C130.433 18.8431 130.189 18.793 129.906 18.793C129.605 18.793 129.35 18.8568 129.141 18.9844C128.931 19.112 128.758 19.2874 128.621 19.5107C128.489 19.734 128.391 19.9938 128.327 20.29C128.263 20.5863 128.231 20.903 128.231 21.2402Z" fill="white"/>
</g>
<defs>
<filter id="filter0_d_2956_1361" x="0" y="0" width="150" height="46" filterUnits="userSpaceOnUse" color-interpolation-filters="sRGB">
<feFlood flood-opacity="0" result="BackgroundImageFix"/>
<feColorMatrix in="SourceAlpha" type="matrix" values="0 0 0 0 0 0 0 0 0 0 0 0 0 0 0 0 0 0 127 0" result="hardAlpha"/>
<feOffset dy="3"/>
<feGaussianBlur stdDeviation="2"/>
<feComposite in2="hardAlpha" operator="out"/>
<feColorMatrix type="matrix" values="0 0 0 0 0 0 0 0 0 0 0 0 0 0 0 0 0 0 0.25 0"/>
<feBlend mode="normal" in2="BackgroundImageFix" result="effect1_dropShadow_2956_1361"/>
<feBlend mode="normal" in="SourceGraphic" in2="effect1_dropShadow_2956_1361" result="shape"/>
</filter>
</defs>
</svg>
