 <svg  id="svgimgDBDetails" xmlns="http://www.w3.org/2000/svg" width="25" height="25" viewBox="0 0 25 25"  fill="#5392F6">
                            <path d="M25 12.2549H19.6078V6.16951L15.8893 2.45098H14.7059V0H0V22.549H2.45098V25H19.6078V21.0784H25V12.2549ZM16.1765 4.12461L17.9342 5.88235H16.1765V4.12461ZM0.980392 21.5686V0.980392H13.7255V2.45098H2.45098V21.5686H0.980392ZM18.6275 24.0196H3.43137V3.43137H15.1961V6.86275H18.6275V12.2549H5.39216V21.0784H18.6275V24.0196ZM24.0196 20.098H6.37255V13.2353H24.0196V20.098Z" />
                            <path d="M5.39215 4.90195H13.7255V5.88234H5.39215V4.90195Z"  />
                            <path d="M5.39215 7.35294H13.7255V8.33333H5.39215V7.35294Z" />
                            <path d="M5.39215 9.80392H17.1569V10.7843H5.39215V9.80392Z" />
                            <path d="M19.1177 17.6471C19.1177 17.2707 18.9754 16.9271 18.742 16.6667C18.9754 16.4063 19.1177 16.0627 19.1177 15.6863C19.1177 14.8754 18.4579 14.2157 17.6471 14.2157H15.6863V19.1177H17.6471C18.4579 19.1177 19.1177 18.458 19.1177 17.6471ZM16.6667 15.1961H17.6471C17.9174 15.1961 18.1373 15.416 18.1373 15.6863C18.1373 15.9566 17.9174 16.1765 17.6471 16.1765H16.6667V15.1961ZM16.6667 17.1569H17.6471C17.9174 17.1569 18.1373 17.3768 18.1373 17.6471C18.1373 17.9174 17.9174 18.1373 17.6471 18.1373H16.6667V17.1569Z" />
                            <path d="M14.7059 16.6667C14.7059 15.3152 13.6064 14.2157 12.2549 14.2157H11.2745V19.1177H12.2549C13.6064 19.1177 14.7059 18.0181 14.7059 16.6667ZM12.2549 15.1961C13.0658 15.1961 13.7255 15.8558 13.7255 16.6667C13.7255 17.4776 13.0658 18.1373 12.2549 18.1373V15.1961Z"  />
                          </svg>