<svg width="18" height="17" viewBox="0 0 18 17" fill="none" xmlns="http://www.w3.org/2000/svg">
<path fill-rule="evenodd" clip-rule="evenodd" d="M7.11766 0.5C6.56538 0.5 6.11766 0.947715 6.11766 1.5V2.27734H2.88889C2.39797 2.27734 2 2.67531 2 3.16623C2 3.65715 2.39797 4.05512 2.88889 4.05512H3.65937C3.65124 4.1284 3.64706 4.20287 3.64706 4.27832V14.5005C3.64706 15.6051 4.54249 16.5005 5.64706 16.5005H12.3529C13.4575 16.5005 14.3529 15.6051 14.3529 14.5005V4.27832C14.3529 4.20287 14.3488 4.1284 14.3406 4.05512H15.1111C15.602 4.05512 16 3.65715 16 3.16623C16 2.67531 15.602 2.27734 15.1111 2.27734H11.8824V1.5C11.8824 0.947715 11.4347 0.5 10.8824 0.5H7.11766ZM11.0588 2.27734V1.38867H6.94117V2.27734H11.0588ZM12.7059 4.05566H5.29409V13.7223C5.29409 14.2746 5.74181 14.7223 6.29409 14.7223H11.7059C12.2581 14.7223 12.7059 14.2746 12.7059 13.7223V4.05566ZM6.94118 6.45065C6.94118 6.10954 7.21771 5.83301 7.55883 5.83301C7.89995 5.83301 8.17648 6.10954 8.17648 6.45065V11.4376C8.17648 11.7787 7.89995 12.0552 7.55883 12.0552C7.21771 12.0552 6.94118 11.7787 6.94118 11.4376V6.45065ZM10.8529 5.83301C10.5118 5.83301 10.2353 6.10954 10.2353 6.45065V11.4376C10.2353 11.7787 10.5118 12.0552 10.8529 12.0552C11.194 12.0552 11.4706 11.7787 11.4706 11.4376V6.45065C11.4706 6.10954 11.194 5.83301 10.8529 5.83301Z" fill="#DB1E36"/>
</svg>
