<svg id="svgimgFileArtifact"  xmlns="http://www.w3.org/2000/svg" width="20" height="25" viewBox="0 0 20 25" fill="white">
                        <path d="M18.5698 5.18887L13.8617 0.734668C13.3609 0.260889 12.7054 0 12.0161 0H3.05237C1.57156 0 0.366821 1.20474 0.366821 2.68555V22.3145C0.366821 23.7953 1.57156 25 3.05237 25H16.7242C18.2051 25 19.4098 23.7953 19.4098 22.3145V7.13975C19.4098 6.40493 19.1036 5.69385 18.5698 5.18887ZM17.1471 5.85938H13.5016C13.367 5.85938 13.2574 5.74985 13.2574 5.61523V2.17949L17.1471 5.85938ZM16.7242 23.5352H3.05237C2.37927 23.5352 1.83167 22.9875 1.83167 22.3145V2.68555C1.83167 2.01245 2.37927 1.46484 3.05237 1.46484H11.7926V5.61523C11.7926 6.55757 12.5593 7.32422 13.5016 7.32422H17.9449V22.3145C17.9449 22.9875 17.3973 23.5352 16.7242 23.5352Z" fill="white"/>
                        <path d="M15.1129 9.76562H4.37073C3.96624 9.76562 3.63831 10.0936 3.63831 10.498C3.63831 10.9025 3.96624 11.2305 4.37073 11.2305H15.1129C15.5174 11.2305 15.8453 10.9025 15.8453 10.498C15.8453 10.0936 15.5174 9.76562 15.1129 9.76562Z" fill="white"/>
                        <path d="M15.1129 13.6719H4.37073C3.96624 13.6719 3.63831 13.9998 3.63831 14.4043C3.63831 14.8088 3.96624 15.1367 4.37073 15.1367H15.1129C15.5174 15.1367 15.8453 14.8088 15.8453 14.4043C15.8453 13.9998 15.5174 13.6719 15.1129 13.6719Z" fill="white"/>
                        <path d="M7.92151 17.5781H4.37073C3.96624 17.5781 3.63831 17.9061 3.63831 18.3105C3.63831 18.715 3.96624 19.043 4.37073 19.043H7.92151C8.326 19.043 8.65393 18.715 8.65393 18.3105C8.65393 17.9061 8.326 17.5781 7.92151 17.5781Z" fill="white"/>
                      </svg>