<svg width="35" height="35" viewBox="0 0 35 35" fill="none" xmlns="http://www.w3.org/2000/svg">
<path d="M17 8C17 12.4183 13.4183 16 9 16C4.58172 16 1 12.4183 1 8C1 3.58172 4.58172 0 9 0C13.4183 0 17 3.58172 17 8ZM2.50722 8C2.50722 11.5859 5.41413 14.4928 9 14.4928C12.5859 14.4928 15.4928 11.5859 15.4928 8C15.4928 4.41413 12.5859 1.50722 9 1.50722C5.41413 1.50722 2.50722 4.41413 2.50722 8Z" fill="white"/>
<rect x="8.11108" y="3.55556" width="0.888889" height="6.22222" rx="0.444444" fill="white"/>
<rect x="12.5555" y="8.88889" width="0.888889" height="4.44444" rx="0.444445" transform="rotate(90 12.5555 8.88889)" fill="white"/>
</svg>
