<svg width="15" height="26" viewBox="0 0 15 26" fill="none" xmlns="http://www.w3.org/2000/svg">
<path d="M3.18179 8.27277L3.18179 23.6364L12.6364 23.6364L12.6364 8.27277L3.18179 8.27277Z" fill="#E8E8E8"/>
<path d="M5.54547 1.18178L3.18185 1.18178C1.87647 1.18178 0.818236 2.24002 0.818236 3.5454L0.818237 23.6364C0.818186 24.9418 1.87642 26 3.1818 26L12.6364 26C13.9418 26 15 24.9418 15 23.6364L15 3.54545C15 2.24007 13.9418 1.18183 12.6364 1.18183L10.2728 1.18183C10.2728 0.52914 9.74362 -3.90141e-07 9.09093 -3.61611e-07L6.72731 -2.58294e-07C6.07456 -5.17282e-05 5.54547 0.529091 5.54547 1.18178ZM6.72726 2.36357L12.6364 2.36357C13.2891 2.36357 13.8182 2.89271 13.8182 3.5454L13.8182 23.6364C13.8182 24.2891 13.2891 24.8182 12.6364 24.8182L3.1818 24.8182C2.52911 24.8182 1.99997 24.2891 1.99997 23.6364L1.99997 3.54545C1.99997 2.89276 2.52911 2.36362 3.1818 2.36362L6.72726 2.36357Z" fill="#E8E8E8"/>
</svg>
