<svg width="30" height="24" viewBox="0 0 30 24" fill="none" xmlns="http://www.w3.org/2000/svg">
<path d="M24.7182 0H0L5.28176 13.973H30L24.7182 0ZM27.944 12.9884H6.23521C6.06116 12.9884 5.90583 12.8802 5.84551 12.718L1.66697 1.54632C1.61982 1.41804 1.63716 1.27519 1.71551 1.16355C1.75366 1.10836 1.80464 1.06324 1.86406 1.03208C1.92348 1.00092 1.98958 0.984645 2.05667 0.984652H23.7648C23.9388 0.984652 24.0942 1.09213 24.1545 1.25439L28.3212 12.3948C28.3462 12.4489 28.3601 12.5086 28.3601 12.5723C28.3601 12.8019 28.1742 12.9884 27.944 12.9884ZM9.55737 21.2539H21.3503V23.3279H9.55737V21.2539ZM14.543 14.8051H16.3653V20.4218H14.543V14.8051Z" fill="white"/>
<path d="M20.1181 9.13579L21.2477 12.1563H27.3435L26.2139 9.13579H20.1181ZM19.8068 8.30369H25.9026L24.7196 5.14032H18.6238L19.8068 8.30369ZM24.4083 4.30822L23.4763 1.81677H17.3812L18.3125 4.30822H24.4083ZM17.4242 4.30822L16.4922 1.81677H9.7224L10.6544 4.30822H17.4242ZM8.83413 1.81677H2.65648L3.58843 4.30822H9.76609L8.83413 1.81677ZM10.0774 5.14032H3.89978L5.08275 8.30369H11.2604L10.0774 5.14032ZM10.9657 5.14032L12.1487 8.30369H18.9185L17.7355 5.14032H10.9657ZM12.46 9.13579L13.5896 12.1563H20.3594L19.2298 9.13579H12.46ZM5.39409 9.13579L6.52367 12.1563H12.7013L11.571 9.13579H5.39409Z" fill="white"/>
</svg>
